<svg width="1440" height="1388" viewBox="0 0 1440 1388" fill="none" xmlns="http://www.w3.org/2000/svg">
<rect width="1440" height="1388" fill="#C4F0FA"/>
<g clip-path="url(#clip0_1022_778)">
<path d="M-8.87302 216C-14.444 216 -20.0149 216 -25.5859 216C-29.1645 215.318 -32.8591 215.708 -36.4377 214.948C-40.6933 214.033 -45.0263 213.507 -49.2432 212.202C-55.1236 210.39 -61.1588 209.144 -67.2134 208.014C-71.1015 207.293 -75.0669 206.339 -78.7229 204.683C-81.6051 203.359 -84.7194 202.755 -87.679 201.586C-91.0254 200.261 -94.0237 198.431 -97.08 196.639C-97.9698 196.113 -98.8402 195.704 -99.8461 195.606C-105.243 195.022 -110.601 195.392 -116.017 195.801C-120.989 196.191 -126.018 195.84 -131.009 195.333C-131.531 195.275 -132.073 194.983 -132.595 195.08C-136.231 195.801 -139.172 194.087 -142.189 192.451C-144.453 191.224 -145.729 189.354 -145.768 186.86C-145.787 184.231 -146 181.601 -146 178.972C-145.149 175.329 -143.466 173.791 -139.829 173.284C-132.421 172.232 -124.896 172.076 -117.507 170.947C-110.427 169.856 -103.289 169.174 -96.2095 168.083C-89.594 167.032 -82.9785 165.902 -76.3629 164.869C-70.231 163.915 -63.9443 162.844 -57.6383 163.876C-56.9419 163.993 -56.2262 164.071 -55.5685 163.915C-50.3844 162.766 -45.1036 163.409 -39.9002 163.019C-35.0643 162.668 -30.2477 163.564 -25.3925 163.077C-21.0982 162.649 -16.7652 162.883 -12.6063 161.402C-11.349 160.954 -9.9756 161.032 -8.64089 160.935C-3.32139 160.604 2.01744 160.448 7.33694 159.961C15.6934 159.961 24.0498 159.961 32.4063 159.961C35.656 160.506 38.9831 159.903 42.1942 160.74C43.3935 162.688 45.0764 163.623 47.4169 163.564C49.0418 163.525 50.1251 164.246 50.1637 166.194C50.1831 167.83 51.0342 169.311 51.5178 170.869C52.2142 173.148 53.4715 174.648 56.199 174.492C58.0946 174.394 59.1392 176.147 59.1779 178.952C59.1198 177.238 60.4546 176.05 60.8027 174.472C60.9962 173.596 61.8473 173.381 62.6791 173.459C65.9094 173.771 69.1205 173.011 72.3702 173.381C74.2852 173.596 76.0455 172.096 77.9799 172.135C81.8873 172.213 85.7754 172.388 89.7021 172.057C90.8821 171.96 92.3522 171.687 92.8358 173.596C93.3194 175.505 93.4741 177.121 91.1722 178.232C92.565 177.978 93.1646 177.199 93.5128 176.167C93.861 175.135 94.4607 174.219 94.9249 173.245C95.6019 171.862 96.5498 171.278 98.1166 171.901C99.9736 172.641 101.676 171.94 103.107 170.83C104.519 169.72 105.699 169.759 107.344 170.382C109.549 171.239 112.025 171.434 113.63 173.518C114.829 175.057 115.294 176.673 114.675 178.056C114.888 177.764 115.042 177.024 114.752 176.069C114.404 174.979 114.385 173.829 114.771 172.68C115.062 171.804 114.907 170.927 114.23 170.304C112.895 169.057 113.205 167.889 114.211 166.661C115.236 166.116 116.338 166.35 117.402 166.389C123.805 166.661 130.227 166.739 136.591 166.447C142.82 166.175 148.99 166.993 155.238 166.584C160.21 166.252 165.22 167.246 170.23 167.441C172.357 167.519 174.389 167.285 176.42 166.856C177.832 166.564 179.108 166.623 180.482 167.032C184.273 168.2 185.84 170.421 185.511 174.375C185.356 176.225 185.647 178.076 185.588 179.926C185.492 182.906 183.944 184.991 181.081 185.828C180.559 185.984 179.96 186.12 179.65 186.549C177.677 189.412 174.408 189.509 171.545 190.405C169.785 190.951 168.179 191.886 166.458 192.509C163.711 193.483 161.041 194.028 158.159 193.697C157.772 193.658 157.347 193.6 156.999 193.736C153.42 195.217 149.609 195.489 145.857 196.113C145.102 196.229 144.367 196.502 143.593 196.307C141.562 195.781 139.589 195.957 137.713 196.833C134.599 198.314 131.194 197.729 127.944 198.255C122.47 199.112 116.977 199.775 111.541 200.865C110.535 201.06 109.587 201.138 108.562 200.982C105.951 200.612 103.397 200.593 100.767 201.333C98.871 201.859 96.7819 201.664 94.8282 202.151C91.269 203.047 87.5937 202.852 83.9958 203.183C79.6047 203.592 75.0783 204.06 70.6293 203.222C69.0238 202.911 67.3796 202.891 65.7934 203.203C63.7043 203.612 61.6539 203.397 59.5841 203.281C56.4504 203.105 53.4908 203.3 50.5506 205.131C44.3607 208.949 37.571 211.461 30.2205 211.968C25.9649 212.26 21.9027 213.565 17.6858 214.033C11.4765 214.714 5.24783 215.513 -1.00016 215.591C-3.63089 215.708 -6.24228 215.708 -8.87302 216Z" fill="white"/>
<path d="M41.6139 160.643C50.3766 162.824 59.3327 163.876 68.2888 164.733C72.409 165.123 76.5872 165.512 80.7654 165.687C90.2051 166.096 99.6835 165.376 109.084 166.856C110.806 167.129 113.456 166.447 115.255 166.369C114.83 167.363 114.559 168.278 115.274 168.843C116.01 169.408 116.493 170.284 116.184 171.102C115.294 173.323 115.371 175.641 115.178 177.959C115.062 179.264 114.094 180.101 112.876 180.277C111.599 180.471 111.967 179.069 111.522 178.426C110.709 177.238 111.754 176.887 112.605 176.79C114.597 176.517 114.23 175.466 113.398 174.414C112.296 172.992 110.961 171.804 109.065 171.472C108.001 171.278 106.937 170.986 105.931 170.596C105.08 170.265 104.423 170.401 103.804 170.986C101.831 172.836 99.5674 173.284 97.014 172.368C96.3177 172.115 96.0082 172.583 95.7567 173.07C95.2731 174.024 94.5574 174.901 94.4607 176.03C94.2673 178.407 91.9267 178.465 90.5533 179.575C90.0503 179.984 89.6635 179.225 89.4313 178.718C89.1025 178.017 88.7737 177.316 88.4255 176.615C88.2127 176.206 87.8645 175.758 88.2514 175.349C88.6769 174.881 89.1025 175.271 89.4507 175.563C89.9536 175.952 90.4759 176.342 91.1142 175.836C91.7719 175.329 91.7332 174.647 91.5398 173.927C91.3464 173.245 91.2496 172.544 90.2631 172.563C89.0445 172.602 87.8065 172.154 86.5685 172.641C83.725 173.771 80.8041 172.174 77.9412 172.778C77.8639 172.797 77.7671 172.719 77.7091 172.739C73.5696 174.55 68.9658 172.953 64.7682 174.414C64.6135 174.472 64.42 174.589 64.3427 174.55C62.2535 173.42 61.4411 174.511 60.5513 176.323C59.7195 178.017 59.1972 179.575 59.913 181.64C59.0232 181.192 58.3848 180.822 57.7078 180.53C56.6632 180.062 56.315 179.614 57.0114 178.426C58.0366 176.654 56.9727 174.725 54.8256 174.706C51.808 174.686 50.5893 172.816 49.6995 170.44C49.3707 169.564 49.1386 168.668 48.8871 167.772C48.3261 165.726 48.3455 163.428 44.9023 163.895C43.8578 164.051 41.8267 162.688 41.6139 160.643Z" fill="white"/>
<path d="M55.58 173.459C54.4774 173.381 53.4909 172.953 53.3942 171.823C53.2781 170.557 54.4 170.44 55.3092 170.401C56.3731 170.362 57.0695 170.985 57.2049 172.037C57.3403 173.167 56.5085 173.42 55.58 173.459Z" fill="white"/>
<path d="M62.2342 171.706C62.3309 170.09 63.3368 170.031 64.4587 170.109C63.7237 170.635 62.9692 171.18 62.2342 171.706Z" fill="white"/>
</g>
<g clip-path="url(#clip1_1022_778)">
<path d="M1414.53 459C1408.9 459 1403.27 459 1397.65 459C1394.03 458.306 1390.3 458.703 1386.68 457.929C1382.38 456.998 1378.01 456.462 1373.75 455.134C1367.81 453.29 1361.71 452.021 1355.59 450.871C1351.66 450.138 1347.66 449.166 1343.97 447.481C1341.05 446.133 1337.91 445.518 1334.92 444.329C1331.54 442.981 1328.51 441.117 1325.42 439.293C1324.52 438.758 1323.64 438.341 1322.63 438.242C1317.17 437.647 1311.76 438.024 1306.29 438.44C1301.27 438.837 1296.19 438.48 1291.14 437.965C1290.62 437.905 1290.07 437.608 1289.54 437.707C1285.87 438.44 1282.9 436.696 1279.85 435.03C1277.56 433.781 1276.27 431.878 1276.23 429.34C1276.21 426.664 1276 423.987 1276 421.311C1276.86 417.603 1278.56 416.037 1282.23 415.521C1289.72 414.451 1297.32 414.292 1304.78 413.142C1311.94 412.032 1319.15 411.338 1326.3 410.228C1332.98 409.157 1339.67 408.007 1346.35 406.957C1352.54 405.985 1358.9 404.895 1365.27 405.945C1365.97 406.064 1366.69 406.144 1367.36 405.985C1372.59 404.815 1377.93 405.47 1383.19 405.073C1388.07 404.716 1392.94 405.628 1397.84 405.133C1402.18 404.696 1406.56 404.934 1410.76 403.428C1412.03 402.972 1413.42 403.051 1414.76 402.952C1420.14 402.615 1425.53 402.456 1430.91 401.96C1439.35 401.96 1447.79 401.96 1456.23 401.96C1459.51 402.516 1462.88 401.901 1466.12 402.753C1467.33 404.736 1469.03 405.688 1471.4 405.628C1473.04 405.589 1474.13 406.322 1474.17 408.305C1474.19 409.97 1475.05 411.477 1475.54 413.063C1476.24 415.383 1477.51 416.909 1480.27 416.751C1482.18 416.652 1483.24 418.436 1483.28 421.291C1483.22 419.546 1484.57 418.337 1484.92 416.731C1485.11 415.839 1485.97 415.621 1486.81 415.7C1490.08 416.017 1493.32 415.244 1496.6 415.621C1498.54 415.839 1500.32 414.312 1502.27 414.352C1506.22 414.431 1510.15 414.609 1514.11 414.272C1515.31 414.173 1516.79 413.896 1517.28 415.839C1517.77 417.782 1517.92 419.427 1515.6 420.557C1517.01 420.3 1517.61 419.507 1517.96 418.456C1518.31 417.405 1518.92 416.473 1519.39 415.482C1520.07 414.074 1521.03 413.479 1522.61 414.114C1524.49 414.867 1526.21 414.153 1527.66 413.023C1529.08 411.893 1530.27 411.933 1531.94 412.567C1534.16 413.44 1536.66 413.638 1538.29 415.759C1539.5 417.326 1539.97 418.971 1539.34 420.379C1539.56 420.081 1539.71 419.328 1539.42 418.357C1539.07 417.246 1539.05 416.077 1539.44 414.907C1539.73 414.015 1539.58 413.123 1538.89 412.488C1537.54 411.219 1537.86 410.03 1538.87 408.781C1539.91 408.225 1541.02 408.463 1542.1 408.503C1548.56 408.781 1555.05 408.86 1561.48 408.563C1567.77 408.285 1574.01 409.118 1580.32 408.701C1585.34 408.364 1590.4 409.375 1595.46 409.574C1597.61 409.653 1599.67 409.415 1601.72 408.979C1603.14 408.681 1604.43 408.741 1605.82 409.157C1609.65 410.347 1611.23 412.607 1610.9 416.632C1610.75 418.515 1611.04 420.399 1610.98 422.282C1610.88 425.316 1609.32 427.437 1606.43 428.289C1605.9 428.448 1605.29 428.587 1604.98 429.023C1602.99 431.937 1599.69 432.037 1596.79 432.949C1595.02 433.504 1593.39 434.455 1591.65 435.09C1588.88 436.081 1586.18 436.636 1583.27 436.299C1582.88 436.26 1582.45 436.2 1582.1 436.339C1578.48 437.846 1574.63 438.123 1570.84 438.758C1570.08 438.877 1569.34 439.154 1568.56 438.956C1566.5 438.421 1564.51 438.599 1562.62 439.491C1559.47 440.998 1556.03 440.403 1552.75 440.939C1547.22 441.811 1541.67 442.485 1536.18 443.595C1535.16 443.793 1534.2 443.873 1533.17 443.714C1530.53 443.337 1527.95 443.318 1525.29 444.071C1523.38 444.606 1521.27 444.408 1519.29 444.904C1515.7 445.816 1511.98 445.617 1508.35 445.955C1503.91 446.371 1499.34 446.847 1494.85 445.994C1493.22 445.677 1491.56 445.657 1489.96 445.974C1487.85 446.391 1485.78 446.173 1483.69 446.054C1480.52 445.875 1477.53 446.073 1474.56 447.937C1468.31 451.823 1461.45 454.381 1454.02 454.896C1449.72 455.193 1445.62 456.522 1441.36 456.998C1435.09 457.692 1428.8 458.504 1422.48 458.584C1419.83 458.703 1417.19 458.703 1414.53 459Z" fill="white"/>
</g>
<defs>
<clipPath id="clip0_1022_778">
<rect width="331.608" height="56" fill="white" transform="translate(-146 160)"/>
</clipPath>
<clipPath id="clip1_1022_778">
<rect width="335" height="57" fill="white" transform="translate(1276 402)"/>
</clipPath>
</defs>
</svg>
