<svg width="208" height="206" viewBox="0 0 208 206" fill="none" xmlns="http://www.w3.org/2000/svg">
<path d="M72.9169 12.3004C90.6969 -3.31577 117.303 -3.31577 135.083 12.3004C141.538 17.9697 149.42 21.7657 157.877 23.2775C181.172 27.4419 197.761 48.2435 196.637 71.881C196.229 80.4623 198.176 88.9918 202.267 96.5463C213.535 117.355 207.615 143.295 188.434 157.154C181.47 162.185 176.015 169.025 172.66 176.934C163.416 198.718 139.445 210.262 116.65 203.907C108.374 201.6 99.6256 201.6 91.3502 203.907C68.5554 210.262 44.5839 198.718 35.3404 176.934C31.9846 169.025 26.5298 162.185 19.5663 157.154C0.385227 143.295 -5.53523 117.355 5.73305 96.5463C9.82388 88.9918 11.7707 80.4623 11.3627 71.881C10.2391 48.2435 26.8279 27.4419 50.1227 23.2775C58.5797 21.7657 66.4621 17.9697 72.9169 12.3004Z" fill="white"/>
</svg>
